<svg xmlns="http://www.w3.org/2000/svg" xmlns:xlink="http://www.w3.org/1999/xlink" width="1190.552" height="348.662" viewBox="0 0 1190.552 348.662">
  <defs>
    <clipPath id="clip-path">
      <path id="Caminho_57" data-name="Caminho 57" d="M0,0H1190.552V-348.662H0Z" fill="none"/>
    </clipPath>
    <clipPath id="clip-path-2">
      <rect id="Retângulo_9" data-name="Retângulo 9" width="1640.833" height="521.154" transform="translate(-425.283 -241.565)" fill="none"/>
    </clipPath>
    <clipPath id="clip-path-3">
      <rect id="Retângulo_2" data-name="Retângulo 2" width="1263.868" height="478.239" transform="translate(-277.479 -235.565)" fill="none"/>
    </clipPath>
    <clipPath id="clip-path-4">
      <rect id="Retângulo_4" data-name="Retângulo 4" width="1619.164" height="436.643" transform="translate(-411.614 -145.054)" fill="none"/>
    </clipPath>
    <clipPath id="clip-path-5">
      <rect id="Retângulo_3" data-name="Retângulo 3" width="1602.963" height="307.055" transform="translate(-403.413 -151.054)" fill="none"/>
    </clipPath>
    <clipPath id="clip-path-6">
      <rect id="Retângulo_5" data-name="Retângulo 5" width="1624.833" height="441.039" transform="translate(-417.283 -173.167)" fill="none"/>
    </clipPath>
    <clipPath id="clip-path-7">
      <rect id="Retângulo_8" data-name="Retângulo 8" width="1471.268" height="278.249" transform="translate(-263.718 -149.027)" fill="none"/>
    </clipPath>
    <clipPath id="clip-path-8">
      <rect id="Retângulo_6" data-name="Retângulo 6" width="513.651" height="63.333" transform="translate(-82.703 -16.588)" fill="none"/>
    </clipPath>
    <clipPath id="clip-path-9">
      <rect id="Retângulo_7" data-name="Retângulo 7" width="28.579" height="18.579" transform="translate(411.948 -20.877)" fill="none"/>
    </clipPath>
  </defs>
  <g id="bg_o0aberturabox" transform="translate(0 348.662)">
    <path id="Caminho_3" data-name="Caminho 3" d="M0,0H1190.552V-348.662H0Z" fill="#ffb52f"/>
    <g id="Grupo_48" data-name="Grupo 48" clip-path="url(#clip-path)">
      <g id="Grupo_47" data-name="Grupo 47" opacity="0.85">
        <g id="Grupo_46" data-name="Grupo 46">
          <g id="Grupo_45" data-name="Grupo 45" clip-path="url(#clip-path-2)">
            <g id="Grupo_19" data-name="Grupo 19" opacity="0.5" style="mix-blend-mode: multiply;isolation: isolate">
              <g id="Grupo_18" data-name="Grupo 18">
                <g id="Grupo_17" data-name="Grupo 17" clip-path="url(#clip-path-3)">
                  <g id="Grupo_4" data-name="Grupo 4" transform="translate(142.519 -2.278)">
                    <path id="Caminho_4" data-name="Caminho 4" d="M0,0H66.14L82.072-15.931H228.131V-19.09H80.763L64.832-3.159H1.309L-15.369-19.837h-70.3l-13.58-13.579V-181.507h-3.159v149.4l15.43,15.429h70.3Z" fill="#ffb52f"/>
                  </g>
                  <g id="Grupo_5" data-name="Grupo 5" transform="translate(61.104 -28.239)">
                    <path id="Caminho_5" data-name="Caminho 5" d="M0,0H339.056V-1.58H.654L-9.823-12.057V-135.34H-11.4V-11.4Z" fill="#ffb52f"/>
                  </g>
                  <g id="Grupo_6" data-name="Grupo 6" transform="translate(191.339 -39.843)">
                    <path id="Caminho_6" data-name="Caminho 6" d="M0,0V-3.159H9.736L33.645-27.068H89.712l28.455-28.455,2.234,2.234L91.02-23.908H34.954L11.045,0Z" fill="#ffb52f"/>
                  </g>
                  <g id="Grupo_7" data-name="Grupo 7" transform="translate(-105.762 2.43)">
                    <path id="Caminho_7" data-name="Caminho 7" d="M0,0H124.72l21.66-21.66-1.117-1.117-21.2,21.2H.654L-21.084-23.318h-98.4v1.58h97.749Z" fill="#ffb52f"/>
                  </g>
                  <g id="Grupo_8" data-name="Grupo 8" transform="translate(-93.25 -15.064)">
                    <path id="Caminho_8" data-name="Caminho 8" d="M0,0H102.017l17.809-17.808-2.235-2.234L100.708-3.159H1.309L-20.474-24.941l-2.234,2.234Z" fill="#ffb52f"/>
                  </g>
                  <g id="Grupo_9" data-name="Grupo 9" transform="translate(242.288 -46.929)">
                    <path id="Caminho_9" data-name="Caminho 9" d="M0,0H180.407l18.486-18.486-2.234-2.234L179.1-3.159H0Z" fill="#ffb52f"/>
                  </g>
                  <g id="Grupo_10" data-name="Grupo 10" transform="translate(482.538 -13.647)">
                    <path id="Caminho_10" data-name="Caminho 10" d="M0,0H128.581L163.8-35.215l-2.234-2.234-34.29,34.29H0Z" fill="#ffb52f"/>
                  </g>
                  <path id="Caminho_11" data-name="Caminho 11" d="M28-66.532h3.159V-216.938H28Z" fill="#ffb52f"/>
                  <path id="Caminho_12" data-name="Caminho 12" d="M23.44-42.944H35.715v12.275H23.44Zm0,12.275,3.159-3.16h5.957v-5.957H26.6Z" fill="#ffb52f"/>
                  <path id="Caminho_13" data-name="Caminho 13" d="M-5.479-91.59H6.8v12.275H-5.479Zm0,12.275,3.159-3.159H3.637V-88.43H-2.32Z" fill="#ffb52f"/>
                  <path id="Caminho_14" data-name="Caminho 14" d="M35.551-194.481H47.826v12.275H35.551Zm0,12.275,3.159-3.159h5.957v-5.956H38.71Z" fill="#ffb52f"/>
                  <path id="Caminho_15" data-name="Caminho 15" d="M308.7-104.588h12.275v12.275H308.7Zm0,12.275,3.159-3.159h5.957v-5.956h-5.957Z" fill="#ffb52f"/>
                  <path id="Caminho_16" data-name="Caminho 16" d="M436.617-75.747h12.275v12.275H436.617Zm0,12.276,3.159-3.16h5.956v-5.956h-5.956Z" fill="#ffb52f"/>
                  <path id="Caminho_17" data-name="Caminho 17" d="M641.49-59.257h12.275v12.275H641.49Zm0,12.276,3.16-3.16h5.956V-56.1H644.65Z" fill="#ffb52f"/>
                  <path id="Caminho_18" data-name="Caminho 18" d="M499.979-33.04h12.275v12.275H499.979Zm0,12.275,3.16-3.159H509.1v-5.957h-5.956Z" fill="#ffb52f"/>
                  <path id="Caminho_19" data-name="Caminho 19" d="M577.928-111.163H590.2v12.275H577.928Zm0,12.275,3.16-3.16h5.956V-108h-5.956Z" fill="#ffb52f"/>
                  <path id="Caminho_20" data-name="Caminho 20" d="M367.653-26.236h12.275v12.275H367.653Zm0,12.274,3.159-3.159h5.957v-5.957h-5.957Z" fill="#ffb52f"/>
                  <path id="Caminho_21" data-name="Caminho 21" d="M23.44-68.112H35.715v12.275H23.44Zm0,12.275M26.6-59h5.957v-5.956H26.6Z" fill="#ffb52f"/>
                  <path id="Caminho_22" data-name="Caminho 22" d="M3.981-45.77H-7.272V-57.023H3.981Z" fill="#ffb52f"/>
                  <path id="Caminho_23" data-name="Caminho 23" d="M35.2-211.312H23.951v-11.253H35.2Z" fill="#ffb52f"/>
                  <path id="Caminho_24" data-name="Caminho 24" d="M191.637-37.73h-7.385v-7.385h7.385Z" fill="#ffb52f"/>
                  <path id="Caminho_25" data-name="Caminho 25" d="M247.914-42.883H236.661V-54.136h11.253Z" fill="#ffb52f"/>
                  <path id="Caminho_26" data-name="Caminho 26" d="M488.164-9.6H476.911V-20.853h11.253Z" fill="#ffb52f"/>
                  <path id="Caminho_27" data-name="Caminho 27" d="M763.012-145.021H751.759v-11.253h11.253Z" fill="#ffb52f"/>
                  <path id="Caminho_28" data-name="Caminho 28" d="M549.684-59.241H538.431V-70.494h11.253Z" fill="#ffb52f"/>
                  <path id="Caminho_29" data-name="Caminho 29" d="M757.435-82.166h10.7v10.695h-10.7Zm0,10.7,1.579-1.58h7.536v-7.536h-7.536Z" fill="#ffb52f"/>
                  <path id="Caminho_30" data-name="Caminho 30" d="M510.265-59.526h10.7v10.695h-10.7Zm0,10.695,1.579-1.579h7.536v-7.536h-7.536Z" fill="#ffb52f"/>
                  <path id="Caminho_31" data-name="Caminho 31" d="M316.876-71.749h10.7v10.695h-10.7Zm0,10.695,1.579-1.579h7.536v-7.536h-7.536Z" fill="#ffb52f"/>
                  <path id="Caminho_32" data-name="Caminho 32" d="M44.617-15.211H35.5v-9.116h9.116Z" fill="#ffb52f"/>
                  <g id="Grupo_11" data-name="Grupo 11" transform="translate(-1.084 -72.26)">
                    <path id="Caminho_33" data-name="Caminho 33" d="M0,0A4.558,4.558,0,0,1,9.116,0,4.558,4.558,0,0,1,4.558,4.558,4.558,4.558,0,0,1,0,0" fill="#ffb52f"/>
                  </g>
                  <path id="Caminho_34" data-name="Caminho 34" d="M53.853-156.9H47.016v-6.837h6.837Z" fill="#ffb52f"/>
                  <path id="Caminho_35" data-name="Caminho 35" d="M405.426-24.471H396.31v-9.116h9.116Z" fill="#ffb52f"/>
                  <path id="Caminho_36" data-name="Caminho 36" d="M640.288-85.4h-9.116v-9.116h9.116Z" fill="#ffb52f"/>
                  <path id="Caminho_37" data-name="Caminho 37" d="M473.048-106.812h-9.116v-9.116h9.116Z" fill="#ffb52f"/>
                  <g id="Grupo_12" data-name="Grupo 12" transform="translate(510.675 -25.354)">
                    <path id="Caminho_38" data-name="Caminho 38" d="M0,0H82.647l99.675-99.676h41l24.5-24.5-2.234-2.234-23.576,23.576h-41L81.338-3.159H0Z" fill="#ffb52f"/>
                  </g>
                  <g id="Grupo_13" data-name="Grupo 13" transform="translate(520.171 -53.389)">
                    <path id="Caminho_39" data-name="Caminho 39" d="M0,0H38.079L73.863-35.785h39.414v-1.579H73.209L37.424-1.58H0Z" fill="#ffb52f"/>
                  </g>
                  <g id="Grupo_14" data-name="Grupo 14" transform="translate(326.781 -65.612)">
                    <path id="Caminho_40" data-name="Caminho 40" d="M0,0H57.429l.232-.231L102.4-44.969h39.31v-1.579H101.744L56.775-1.579H0Z" fill="#ffb52f"/>
                  </g>
                  <g id="Grupo_15" data-name="Grupo 15" transform="translate(-84.768 -96.485)">
                    <path id="Caminho_41" data-name="Caminho 41" d="M0,0,23.435,23.435H88.242v1.579H22.78l-23.9-23.9Z" fill="#ffb52f"/>
                  </g>
                  <g id="Grupo_16" data-name="Grupo 16" transform="translate(545.175 -63.75)">
                    <path id="Caminho_42" data-name="Caminho 42" d="M0,0,36.177-36.177l-2.234-2.234L-2.234-2.234Z" fill="#ffb52f"/>
                  </g>
                  <path id="Caminho_43" data-name="Caminho 43" d="M674.4-1.2h12.275V11.072H674.4Zm0,12.275,3.159-3.159h5.956V1.956H677.56Z" fill="#ffb52f"/>
                </g>
              </g>
            </g>
            <g id="Grupo_30" data-name="Grupo 30" opacity="0.3" style="mix-blend-mode: multiply;isolation: isolate">
              <g id="Grupo_29" data-name="Grupo 29">
                <g id="Grupo_28" data-name="Grupo 28" clip-path="url(#clip-path-6)">
                  <g id="Grupo_26" data-name="Grupo 26" transform="translate(163.231 171.799)">
                    <path id="Caminho_44" data-name="Caminho 44" d="M0,0H137.789L228.8-91.395l.235-.236H568.559l78.936-78.936.234-.234H1026.52v-44.38H602.142l-78.991,78.991-.234.234H383.826l-.234-.234q-16.734-16.734-33.468-33.468H251.632L168.49-86.518l-.234.235H-22.957L-54.041-55.2l-.234.235H-392.76l-.234-.235Q-409.9-72.114-426.8-89.029H-557.045v34.18h116.194l.234.235Q-413.309-27.308-386,0h87.932l.234.234q41.019,41.019,82.039,82.039H-82.821L-.565.234-.331,0Z" fill="none" stroke="#ffb52f" stroke-miterlimit="10" stroke-width="1.6"/>
                  </g>
                  <g id="Grupo_27" data-name="Grupo 27" transform="translate(-399.483 27.274)">
                    <path id="Caminho_45" data-name="Caminho 45" d="M0,0H117.935l.234.234,57.988,57.988H395.868l28.251-28.251.234-.234H780.679l152.19-152.191.235-.234h87.864l41.153-41.154.235-.234h526.878v-34.565H1052.972l-43.3,43.3-.234.235H918.9L770.257-6.47l-.234.234H406.978l-27.19,27.19-.234.235H193.886l-.234-.235-53.091-53.09H0Z" fill="none" stroke="#ffb52f" stroke-miterlimit="10" stroke-width="1.6"/>
                  </g>
                </g>
              </g>
            </g>
            <g id="Grupo_44" data-name="Grupo 44" style="mix-blend-mode: multiply;isolation: isolate">
              <g id="Grupo_43" data-name="Grupo 43">
                <g id="Grupo_42" data-name="Grupo 42" clip-path="url(#clip-path-7)">
                  <g id="Grupo_31" data-name="Grupo 31" transform="translate(1190.551 -22.947)">
                    <path id="Caminho_46" data-name="Caminho 46" d="M0,0H-329.895L-422.2-92.308H-694.93" fill="none" stroke="#ffd892" stroke-miterlimit="10" stroke-width="2"/>
                  </g>
                  <g id="Grupo_35" data-name="Grupo 35" opacity="0.5">
                    <g id="Grupo_34" data-name="Grupo 34">
                      <g id="Grupo_33" data-name="Grupo 33" clip-path="url(#clip-path-8)">
                        <g id="Grupo_32" data-name="Grupo 32" transform="translate(421.948 -8.588)">
                          <path id="Caminho_47" data-name="Caminho 47" d="M0,0H-233.644l-53.334,53.333H-495.651" fill="none" stroke="#ffb52f" stroke-miterlimit="10" stroke-width="2"/>
                        </g>
                      </g>
                    </g>
                  </g>
                  <g id="Grupo_36" data-name="Grupo 36" transform="translate(-246.01 115.515)">
                    <path id="Caminho_48" data-name="Caminho 48" d="M0,0,155.128-155.128H418.462l36.666-36.667" fill="none" stroke="#fff" stroke-miterlimit="10" stroke-width="2"/>
                  </g>
                  <g id="Grupo_37" data-name="Grupo 37" transform="translate(704.759 -39.357)">
                    <path id="Caminho_49" data-name="Caminho 49" d="M0,0H-261.538L-354.42-92.882" fill="none" stroke="#ffeac7" stroke-miterlimit="10" stroke-width="5.6"/>
                  </g>
                  <g id="Grupo_38" data-name="Grupo 38" transform="translate(98.092 -8.588)">
                    <path id="Caminho_50" data-name="Caminho 50" d="M0,0H-174.872l-76.666,76.667" fill="none" stroke="#fff" stroke-miterlimit="10" stroke-width="5.6"/>
                  </g>
                  <path id="Caminho_51" data-name="Caminho 51" d="M352.707-130.355H337.835v-14.872h14.872Z" fill="none" stroke="#ffeac7" stroke-miterlimit="10" stroke-width="5.6"/>
                  <path id="Caminho_52" data-name="Caminho 52" d="M719.63-31.921H704.758V-46.793H719.63Z" fill="none" stroke="#ffb52f" stroke-miterlimit="10" stroke-width="5.6"/>
                  <path id="Caminho_53" data-name="Caminho 53" d="M112.964-1.152H98.092V-16.024h14.872Z" fill="none" stroke="#fff" stroke-miterlimit="10" stroke-width="5.6"/>
                  <path id="Caminho_54" data-name="Caminho 54" d="M495.621-110.965h-8.579v-8.579h8.579Z" fill="none" stroke="#ffd892" stroke-miterlimit="10" stroke-width="2"/>
                  <g id="Grupo_41" data-name="Grupo 41" opacity="0.5">
                    <g id="Grupo_40" data-name="Grupo 40">
                      <g id="Grupo_39" data-name="Grupo 39" clip-path="url(#clip-path-9)">
                        <path id="Caminho_55" data-name="Caminho 55" d="M430.527-4.3h-8.579v-8.579h8.579Z" fill="none" stroke="#ffb52f" stroke-miterlimit="10" stroke-width="2"/>
                      </g>
                    </g>
                  </g>
                  <path id="Caminho_56" data-name="Caminho 56" d="M216.379-75.08H207.8v-8.579h8.579Z" fill="none" stroke="#fff" stroke-miterlimit="10" stroke-width="2"/>
                </g>
              </g>
            </g>
          </g>
        </g>
      </g>
    </g>
  </g>
</svg>
