<svg xmlns="http://www.w3.org/2000/svg" xmlns:xlink="http://www.w3.org/1999/xlink" width="53" height="9" viewBox="0 0 53 9">
  <defs>
    <clipPath id="clip-path">
      <rect id="Retângulo_52" data-name="Retângulo 52" width="53" height="9" transform="translate(199 305)" fill="#fff"/>
    </clipPath>
  </defs>
  <g id="bg_sec1tit1a" transform="translate(-199 -305)" clip-path="url(#clip-path)">
    <g id="Grupo_326" data-name="Grupo 326" transform="translate(-0.261 -6)">
      <g id="Grupo_323" data-name="Grupo 323" transform="translate(327.906 302)">
        <path id="Caminho_286" data-name="Caminho 286" d="M0,0V-20.374H-94.783l-7.973-7.972h-23.917l-7.973,7.972V0l7.973,7.972,7.972,7.973h33.883l7.973-7.973H-7.972Z" fill="#1bb897"/>
      </g>
      <g id="Grupo_324" data-name="Grupo 324" transform="translate(327.906 302)">
        <path id="Caminho_287" data-name="Caminho 287" d="M0,0V-20.374H-94.783l-7.973-7.972h-23.917l-7.973,7.972V0l7.973,7.972,7.972,7.973h33.883l7.973-7.973H-7.972Z" fill="none" stroke="#ffb52f" stroke-width="1.5"/>
      </g>
      <path id="Caminho_427" data-name="Caminho 427" d="M0,0H-16.831L-24.8,7.972v9.036" transform="translate(216.064 271.653)" fill="none" stroke="#ffb52f" stroke-width="5"/>
      <g id="Grupo_325" data-name="Grupo 325" transform="translate(284.371 312.355)">
        <path id="Caminho_290" data-name="Caminho 290" d="M0,0H37.692l7.972-7.972V-19.311" fill="none" stroke="#ffb52f" stroke-width="5"/>
      </g>
    </g>
  </g>
</svg>
