<svg xmlns="http://www.w3.org/2000/svg" xmlns:xlink="http://www.w3.org/1999/xlink" width="46" height="12" viewBox="0 0 46 12">
  <defs>
    <clipPath id="clip-path">
      <rect id="Retângulo_53" data-name="Retângulo 53" width="46" height="12" transform="translate(187 262)" fill="#fff"/>
    </clipPath>
  </defs>
  <g id="bg_sec1tit1" transform="translate(-187 -262)" clip-path="url(#clip-path)">
    <g id="Grupo_330" data-name="Grupo 330" transform="translate(-0.261 -6)">
      <g id="Grupo_327" data-name="Grupo 327" transform="translate(327.906 302)">
        <path id="Caminho_428" data-name="Caminho 428" d="M0,0V-20.374H-94.783l-7.973-7.972h-23.917l-7.973,7.972V0l7.973,7.972,7.972,7.973h33.883l7.973-7.973H-7.972Z" fill="#1bb897"/>
      </g>
      <g id="Grupo_328" data-name="Grupo 328" transform="translate(327.906 302)">
        <path id="Caminho_429" data-name="Caminho 429" d="M0,0V-20.374H-94.783l-7.973-7.972h-23.917l-7.973,7.972V0l7.973,7.972,7.972,7.973h33.883l7.973-7.973H-7.972Z" fill="none" stroke="#ffb52f" stroke-width="1.5"/>
      </g>
      <path id="Caminho_430" data-name="Caminho 430" d="M0,0H-16.831L-24.8,7.972v9.036" transform="translate(216.064 271.653)" fill="none" stroke="#ffb52f" stroke-width="5"/>
      <g id="Grupo_329" data-name="Grupo 329" transform="translate(284.371 312.355)">
        <path id="Caminho_431" data-name="Caminho 431" d="M0,0H37.692l7.972-7.972V-19.311" fill="none" stroke="#ffb52f" stroke-width="5"/>
      </g>
    </g>
  </g>
</svg>
