<svg xmlns="http://www.w3.org/2000/svg" width="75.035" height="25.304" viewBox="0 0 75.035 25.304">
  <g id="ico_insta" transform="translate(-1345.291 -2389.579)">
    <g id="Grupo_446" data-name="Grupo 446" transform="translate(1364.407 2402.23)">
      <path id="Caminho_535" data-name="Caminho 535" d="M0,0A6.605,6.605,0,0,0-6.558-6.652,6.605,6.605,0,0,0-13.116,0,6.605,6.605,0,0,0-6.558,6.652,6.605,6.605,0,0,0,0,0Z" fill="none" stroke="#2b2e34" stroke-width="1"/>
    </g>
    <g id="Grupo_447" data-name="Grupo 447" transform="translate(1361.434 2400.302)">
      <path id="Caminho_536" data-name="Caminho 536" d="M0,0A1.035,1.035,0,0,0-1.027-1.042,1.035,1.035,0,0,0-2.054,0,1.035,1.035,0,0,0-1.027,1.042,1.035,1.035,0,0,0,0,0" fill="#2b2e34"/>
    </g>
    <g id="Grupo_448" data-name="Grupo 448" transform="translate(1356.319 2400.302)">
      <path id="Caminho_537" data-name="Caminho 537" d="M0,0A1.035,1.035,0,0,0-1.027-1.042,1.035,1.035,0,0,0-2.054,0,1.035,1.035,0,0,0-1.027,1.042,1.035,1.035,0,0,0,0,0" fill="#2b2e34"/>
    </g>
    <g id="Grupo_449" data-name="Grupo 449" transform="translate(1353.594 2402.76)">
      <path id="Caminho_538" data-name="Caminho 538" d="M0,0A4.287,4.287,0,0,0,4.256,4.317,4.287,4.287,0,0,0,8.512,0" fill="none" stroke="#2b2e34" stroke-width="1"/>
    </g>
    <path id="Caminho_539" data-name="Caminho 539" d="M5.291-2.832H30.407v-25.3H5.291Z" transform="translate(1340 2417.715)" fill="none"/>
    <g id="Grupo_454" data-name="Grupo 454" transform="translate(1373.459 2397.702)">
      <path id="Caminho_543" data-name="Caminho 543" d="M0,0A2.834,2.834,0,0,0-2.835,2.834V8.009A2.834,2.834,0,0,0,0,10.843H10.906A2.834,2.834,0,0,0,13.74,8.009V2.834A2.834,2.834,0,0,0,10.906,0Z" fill="none" stroke="#2b2e34" stroke-width="1"/>
    </g>
    <g id="Grupo_455" data-name="Grupo 455" transform="translate(1378.912 2405.893)">
      <path id="Caminho_544" data-name="Caminho 544" d="M0,0A2.855,2.855,0,0,0,2.933-2.77,2.855,2.855,0,0,0,0-5.54,2.855,2.855,0,0,0-2.933-2.77,2.855,2.855,0,0,0,0,0Z" fill="none" stroke="#2b2e34" stroke-width="1"/>
    </g>
    <g id="Grupo_456" data-name="Grupo 456" transform="translate(1376.36 2396.166)">
      <path id="Caminho_545" data-name="Caminho 545" d="M0,0H5.1" fill="none" stroke="#2b2e34" stroke-linecap="round" stroke-linejoin="round" stroke-width="1.5"/>
    </g>
    <path id="Caminho_546" data-name="Caminho 546" d="M38.124-8.67H55.7V-22.3H38.124Z" transform="translate(1340 2417.715)" fill="none"/>
    <g id="Grupo_458" data-name="Grupo 458" transform="translate(1396.97 2395.211)">
      <path id="Caminho_547" data-name="Caminho 547" d="M0,0A2.835,2.835,0,0,0-2.835,2.835V7.684A2.835,2.835,0,0,0,0,10.519H.008A2.835,2.835,0,0,0,2.843,7.684V2.835A2.835,2.835,0,0,0,.008,0Z" fill="none" stroke="#2b2e34" stroke-width="1"/>
    </g>
    <g id="Grupo_459" data-name="Grupo 459" transform="translate(1393.122 2404.81)">
      <path id="Caminho_548" data-name="Caminho 548" d="M0,0A2.436,2.436,0,0,0,2.474,2.4H5.23A2.436,2.436,0,0,0,7.7,0" fill="none" stroke="#2b2e34" stroke-linecap="round" stroke-linejoin="round" stroke-width="1"/>
    </g>
    <g id="Grupo_460" data-name="Grupo 460" transform="translate(1396.602 2408.065)">
      <path id="Caminho_549" data-name="Caminho 549" d="M0,0A.842.842,0,0,0,0,1.684H.744A.842.842,0,0,0,.744,0Z" fill="#2b2e34"/>
    </g>
    <path id="Caminho_550" data-name="Caminho 550" d="M71.622-7.965h8.7V-23h-8.7Z" transform="translate(1340 2417.715)" fill="none"/>
  </g>
</svg>
