<svg xmlns="http://www.w3.org/2000/svg" xmlns:xlink="http://www.w3.org/1999/xlink" width="595.275" height="212.597" viewBox="0 0 595.275 212.597">
  <defs>
    <clipPath id="clip-path">
      <path id="Caminho_415" data-name="Caminho 415" d="M0,0H595.275V-212.6H0Z" fill="none"/>
    </clipPath>
  </defs>
  <g id="pv_aberturacap" transform="translate(0 212.598)">
    <g id="Grupo_306" data-name="Grupo 306" transform="translate(0 -212.598)">
      <path id="Caminho_413" data-name="Caminho 413" d="M0,0V204.258l59.276-59.276h40l16-16h24l16,16h32l48-48h56l48-48h38.172l16-15.653H482.6l7.086,7.085h79.37L595.275,14.2V0Z" fill="#1bb897"/>
    </g>
    <g id="Grupo_308" data-name="Grupo 308" clip-path="url(#clip-path)">
      <g id="Grupo_307" data-name="Grupo 307" transform="translate(33.133 -179.616)">
        <path id="Caminho_414" data-name="Caminho 414" d="M0,0H-77.858M477.1-8H342.829l-16,16h-24l-48,48h-56l-48,48H125.456l-16-16H78.829l-16,16h-40l-55.963,55.963H-77.858m0-143.962H45.457l24-24h16l76.809-76.809M-53.857,72h192l48-48m-264,72H16.473m237.67-76-12-12h-112M-15.479,16,85.33-84.809M441.669-8H478.52l76.251-76.81m-352.751,0L294.829,8h27.313" fill="none" stroke="#61cbaf" stroke-width="2"/>
      </g>
    </g>
    <g id="Grupo_309" data-name="Grupo 309" transform="translate(552.78 -212.598)">
      <path id="Caminho_416" data-name="Caminho 416" d="M0,0-48.985,48.984H-83.678l-4-4h-94.9l-4,4H-317.5l-16-16h-96l-24,24H-552.78v64h24.8l24,24H-485.5l48-48h80l32-32h32l8-8h48l8,8h98.961l8-8.269h94.172L28.346,0Z" fill="#61cbaf"/>
    </g>
  </g>
</svg>
