<svg xmlns="http://www.w3.org/2000/svg" xmlns:xlink="http://www.w3.org/1999/xlink" width="847" height="122" viewBox="0 0 847 122">
  <defs>
    <clipPath id="clip-path">
      <rect id="Ret창ngulo_80" data-name="Ret창ngulo 80" width="847" height="122" transform="translate(414 3661)" fill="#fff" stroke="#707070" stroke-width="1"/>
    </clipPath>
    <clipPath id="clip-path-2">
      <path id="Caminho_449" data-name="Caminho 449" d="M993.879,58.2,978.315,77.824h205.037L1163.938,58.2Z" fill="none"/>
    </clipPath>
  </defs>
  <g id="pv_ligadonotema" transform="translate(-414 -3661)" clip-path="url(#clip-path)">
    <g id="Grupo_375" data-name="Grupo 375" transform="translate(414 3661)">
      <path id="Caminho_447" data-name="Caminho 447" d="M734.789.142,711.932,33.307H663.111l-33.2,58.49h561.1V25.391H999.086L980.6.142Z" fill="#00a482"/>
      <g id="Grupo_373" data-name="Grupo 373">
        <g id="Grupo_372" data-name="Grupo 372" clip-path="url(#clip-path-2)">
          <path id="Caminho_448" data-name="Caminho 448" d="M941.052,81.108,914.859,54.916m35.406,26.192L924.072,54.916m35.4,26.192L933.284,54.916M968.69,81.108,942.5,54.916m35.4,26.192L951.71,54.916m35.4,26.192L960.922,54.916m35.406,26.192L970.135,54.916m35.4,26.192L979.347,54.916m35.406,26.192L988.56,54.916m35.405,26.192L997.773,54.916m35.4,26.192-26.193-26.192m35.406,26.192L1016.2,54.916M1051.6,81.108,1025.41,54.916m35.406,26.192-26.193-26.192m35.4,26.192-26.192-26.192m35.4,26.192-26.193-26.192m35.406,26.192-26.193-26.192m35.405,26.192-26.193-26.192m35.406,26.192-26.193-26.192m35.4,26.192L1089.9,54.916M1125.3,81.108l-26.193-26.192m35.406,26.192-26.193-26.192m35.405,26.192-26.193-26.192m35.406,26.192-26.193-26.192m35.405,26.192-26.193-26.192m35.406,26.192-26.193-26.192m35.406,26.192-26.193-26.192m35.405,26.192L1163.6,54.916m35.406,26.192-26.193-26.192m35.405,26.192-26.193-26.192m35.406,26.192-26.193-26.192m35.406,26.192L1200.45,54.916m35.405,26.192-26.193-26.192" fill="none" stroke="#007b74" stroke-miterlimit="10" stroke-width="2.5"/>
        </g>
      </g>
      <path id="Caminho_450" data-name="Caminho 450" d="M640.515,0l-334.5.338-19.4,17.991H133.442L113.7,0H.54L0,102.24l50.943.029,17.692,14.313,213.561.6L352.612,68.74h40.532l15.333-15.334H560.091l15.956,15.982h87.038l.026-36.081Z" fill="#00a482"/>
      <path id="Caminho_451" data-name="Caminho 451" d="M989.443,52,976.11,67.331H728.777l1.643,4H977.766L991.1,56h170.946L1178,71.98h13.038v-4h-11.379L1163.7,52Z" fill="#49b394"/>
      <path id="Caminho_452" data-name="Caminho 452" d="M935.845,91.8l-33.581-67.14H717.907l3.429-5H905.354L941.436,91.8Z" fill="#49b394"/>
      <rect id="Ret창ngulo_79" data-name="Ret창ngulo 79" width="135.778" height="5" transform="translate(784.64 54.412)" fill="#49b394"/>
      <path id="Caminho_453" data-name="Caminho 453" d="M653.085,46.848h110L808.214.414h40.444l-74.39,77.225H658.863Z" fill="#007b74"/>
      <path id="Caminho_454" data-name="Caminho 454" d="M598.13,46.711l-39.74,39.74H495.223l-39.4-39.4L90.405,46.711,0,69.388l.026,32.879H148.892l10.956-10.982h77.59l10.335,10.334H639.729l23.357-24.275V46.71Z" fill="#007b74"/>
      <path id="Caminho_455" data-name="Caminho 455" d="M314.731,18.443l-.828,0-25.37,24.4H132.557l-24.74-24.738H.461v4h105.7L130.9,46.847H290.192l25.371-24.4,339.925-.334-2.722-4Z" fill="#49b394"/>
      <path id="Caminho_456" data-name="Caminho 456" d="M289.109,67.406l127.4.3h.827l25.371,24.4H598.688l24.739-24.739H785.974l-4.963,4H625.083L600.345,96.108H441.052L415.681,71.7l-126.585-.3Z" fill="#49b394"/>
      <path id="Caminho_460" data-name="Caminho 460" d="M167.189,111.328h-4.875V99.109h4.875Zm9.75,0h-4.875V99.109h4.875Zm9.75,0h-4.875V99.109h4.875Zm9.75,0h-4.875V99.109h4.875Zm9.75,0h-4.875V99.109h4.875Zm9.75,0h-4.875V99.109h4.875Zm9.75,0h-4.875V99.109h4.875Zm9.75,0h-4.875V99.109h4.875Z" fill="#007b74"/>
    </g>
  </g>
</svg>
