<svg xmlns="http://www.w3.org/2000/svg" width="129.33" height="12.402" viewBox="0 0 129.33 12.402">
  <g id="pv_navegador2" transform="translate(-294.24 -2030.644)">
    <g id="Grupo_407" data-name="Grupo 407" transform="translate(300.441 2030.644)">
      <path id="Caminho_485" data-name="Caminho 485" d="M0,0A6.2,6.2,0,0,0,0,12.4H68.74a6.2,6.2,0,1,0,0-12.4Z" fill="#f5f5f5"/>
    </g>
    <g id="Grupo_408" data-name="Grupo 408" transform="translate(422.641 2034.452)">
      <path id="Caminho_486" data-name="Caminho 486" d="M0,0A.93.93,0,0,0,.93-.93.931.931,0,0,0,0-1.861.931.931,0,0,0-.93-.93.93.93,0,0,0,0,0" fill="#f5f5f5"/>
    </g>
    <g id="Grupo_409" data-name="Grupo 409" transform="translate(422.641 2041.097)">
      <path id="Caminho_487" data-name="Caminho 487" d="M0,0A.93.93,0,0,0,.93-.93.931.931,0,0,0,0-1.861.931.931,0,0,0-.93-.93.93.93,0,0,0,0,0" fill="#f5f5f5"/>
    </g>
    <g id="Grupo_410" data-name="Grupo 410" transform="translate(422.641 2037.774)">
      <path id="Caminho_488" data-name="Caminho 488" d="M0,0A.93.93,0,0,0,.93-.93.931.931,0,0,0,0-1.861.931.931,0,0,0-.93-.93.93.93,0,0,0,0,0" fill="#f5f5f5"/>
    </g>
    <g id="Grupo_411" data-name="Grupo 411" transform="translate(363.572 2038.064)">
      <path id="Caminho_489" data-name="Caminho 489" d="M0,0A2.765,2.765,0,0,0,3.911,0a2.764,2.764,0,0,0,0-3.91A2.764,2.764,0,0,0,0-3.911,2.765,2.765,0,0,0,0,0ZM6.193,2.282,3.911,0" fill="none" stroke="#b7c7cf" stroke-linecap="round" stroke-linejoin="round" stroke-miterlimit="10" stroke-width="1.25"/>
    </g>
    <g id="Grupo_412" data-name="Grupo 412" transform="translate(388.138 2041.45)">
      <path id="Caminho_490" data-name="Caminho 490" d="M0,0A4.6,4.6,0,0,0,4.606-4.605,4.605,4.605,0,0,0,0-9.211,4.605,4.605,0,0,0-4.606-4.605,4.6,4.6,0,0,0,0,0" fill="#f5f5f5"/>
    </g>
    <g id="Grupo_421" data-name="Grupo 421" transform="translate(399.477 2041.45)">
      <path id="Caminho_490-2" data-name="Caminho 490" d="M0,0A4.6,4.6,0,0,0,4.606-4.605,4.605,4.605,0,0,0,0-9.211,4.605,4.605,0,0,0-4.606-4.605,4.6,4.6,0,0,0,0,0" fill="#f5f5f5"/>
    </g>
    <g id="Grupo_422" data-name="Grupo 422" transform="translate(410.815 2041.45)">
      <path id="Caminho_490-3" data-name="Caminho 490" d="M0,0A4.6,4.6,0,0,0,4.606-4.605,4.605,4.605,0,0,0,0-9.211,4.605,4.605,0,0,0-4.606-4.605,4.6,4.6,0,0,0,0,0" fill="#f5f5f5"/>
    </g>
    <path id="Caminho_492" data-name="Caminho 492" d="M296.282-10.428h3.711v-3.711h-3.711Z" transform="translate(90 2049.126)" fill="none" stroke="#b7c7cf" stroke-linecap="round" stroke-linejoin="round" stroke-width="1.25"/>
    <g id="Grupo_416" data-name="Grupo 416" transform="translate(397.621 2036.849)">
      <path id="Caminho_495" data-name="Caminho 495" d="M0,0H3.711" fill="none" stroke="#b7c7cf" stroke-linecap="round" stroke-linejoin="round" stroke-width="1.25"/>
    </g>
    <g id="Grupo_419" data-name="Grupo 419" transform="translate(408.961 2038.696)">
      <path id="Caminho_498" data-name="Caminho 498" d="M0,0,3.711-3.711" fill="none" stroke="#b7c7cf" stroke-linecap="round" stroke-linejoin="round" stroke-width="1.25"/>
    </g>
    <g id="Grupo_420" data-name="Grupo 420" transform="translate(412.672 2038.696)">
      <path id="Caminho_499" data-name="Caminho 499" d="M0,0-3.711-3.711" fill="none" stroke="#b7c7cf" stroke-linecap="round" stroke-linejoin="round" stroke-width="1.25"/>
    </g>
  </g>
</svg>
