<svg xmlns="http://www.w3.org/2000/svg" width="26.928" height="7.088" viewBox="0 0 26.928 7.088">
  <g id="pv_navegador1" transform="translate(-104.674 -2033.3)">
    <g id="Grupo_404" data-name="Grupo 404" transform="translate(108.217 2040.388)">
      <path id="Caminho_482" data-name="Caminho 482" d="M0,0A3.543,3.543,0,0,0,3.543-3.543,3.544,3.544,0,0,0,0-7.088,3.544,3.544,0,0,0-3.543-3.543,3.543,3.543,0,0,0,0,0" fill="#f5f5f5"/>
    </g>
    <g id="Grupo_405" data-name="Grupo 405" transform="translate(118.138 2040.388)">
      <path id="Caminho_483" data-name="Caminho 483" d="M0,0A3.543,3.543,0,0,0,3.543-3.543,3.544,3.544,0,0,0,0-7.088,3.544,3.544,0,0,0-3.543-3.543,3.543,3.543,0,0,0,0,0" fill="#f5f5f5"/>
    </g>
    <g id="Grupo_406" data-name="Grupo 406" transform="translate(128.059 2040.388)">
      <path id="Caminho_484" data-name="Caminho 484" d="M0,0A3.543,3.543,0,0,0,3.543-3.543,3.544,3.544,0,0,0,0-7.088,3.544,3.544,0,0,0-3.543-3.543,3.543,3.543,0,0,0,0,0" fill="#f5f5f5"/>
    </g>
  </g>
</svg>
