<svg xmlns="http://www.w3.org/2000/svg" width="609.448" height="82.066" viewBox="0 0 609.448 82.066">
  <g id="pv_respostas" transform="translate(0 86.718)">
    <g id="Grupo_616" data-name="Grupo 616" transform="translate(0 -86.718)">
      <path id="Caminho_783" data-name="Caminho 783" d="M0,0,.023,69.739l53.539.192H409.674l8.667,12.135H553.346L575.6,52.835l33.851-.012V0Z" fill="#ffb52f"/>
    </g>
    <g id="Grupo_617" data-name="Grupo 617" transform="translate(0 -86.718)">
      <path id="Caminho_784" data-name="Caminho 784" d="M0,0,.023,64.969H412.509L421.531,76.4H550.582l22-29.438h36.865V0Z" fill="#ff8735"/>
    </g>
    <g id="Grupo_618" data-name="Grupo 618" transform="translate(0 -86.718)">
      <path id="Caminho_785" data-name="Caminho 785" d="M0,0V15.424H35.452l9.38,21.143,104.948.184L186.535,0Z" fill="#ff602d"/>
    </g>
    <path id="Caminho_786" data-name="Caminho 786" d="M396.177-21.8H391.3v-19.5h4.875Zm-9.749,0h-4.875v-19.5h4.875Zm-9.75,0H371.8v-19.5h4.875Zm-9.749,0h-4.875v-19.5h4.875Zm-9.75,0H352.3v-19.5h4.875Zm-9.749,0h-4.875v-19.5h4.875Zm-9.75,0H332.8v-19.5h4.875Z" fill="#ff602d"/>
    <path id="Caminho_787" data-name="Caminho 787" d="M327.491-21.8h-4.875v-19.5h4.875Zm-9.75,0h-4.875v-19.5h4.875Zm-9.749,0h-4.875v-19.5h4.875Zm-9.75,0h-4.875v-19.5h4.875Zm-9.749,0h-4.875v-19.5h4.875Zm-9.75,0h-4.875v-19.5h4.875Zm-9.749,0h-4.875v-19.5h4.875Z" fill="#ff602d"/>
    <path id="Caminho_788" data-name="Caminho 788" d="M258.008-21.8h-4.875v-19.5h4.875Zm-9.749,0h-4.875v-19.5h4.875Zm-9.75,0h-4.875v-19.5h4.875Zm-9.749,0h-4.875v-19.5h4.875Zm-9.75,0h-4.875v-19.5h4.875Zm-9.749,0h-4.875v-19.5h4.875Zm-9.75,0h-4.875v-19.5h4.875Z" fill="#ff602d"/>
    <g id="Grupo_619" data-name="Grupo 619" transform="translate(335.995 -86.43)">
      <path id="Caminho_789" data-name="Caminho 789" d="M0,0V8.68H-136.484l-26.029,26.455H82.908L99.491,55.543h96.8L221.155,24.5h52.3V-.184Z" fill="#ff602d"/>
    </g>
  </g>
</svg>
