<svg xmlns="http://www.w3.org/2000/svg" width="584.368" height="69.141" viewBox="0 0 584.368 69.141">
  <g id="pv_referencias" transform="translate(0 87.702)">
    <g id="Grupo_570" data-name="Grupo 570" transform="translate(582.611 -87.702)">
      <path id="Caminho_729" data-name="Caminho 729" d="M0,0-183.552,1.218v7.86H-582.529l.034,60.063H-172.71l91.605-.038h37.27L1.757,0Z" fill="#ffb52f"/>
    </g>
    <g id="Grupo_571" data-name="Grupo 571" transform="translate(396.933 -87.129)">
      <path id="Caminho_730" data-name="Caminho 730" d="M0,0H-396.85V64.309h0l536.46-.1L182.221-.553Z" fill="#95cb45"/>
    </g>
    <g id="Grupo_572" data-name="Grupo 572" transform="translate(0 -87.588)">
      <path id="Caminho_731" data-name="Caminho 731" d="M0,0V15.184H35.431l9.381,21.143,104.952.186L185.925.353,186.378,0Z" fill="#6cc247"/>
    </g>
    <path id="Caminho_732" data-name="Caminho 732" d="M396.174-22.9H391.3V-42.4h4.875Zm-9.75,0h-4.875V-42.4h4.875Zm-9.75,0H371.8V-42.4h4.875Zm-9.75,0h-4.875V-42.4h4.875Zm-9.75,0H352.3V-42.4h4.875Zm-9.75,0h-4.875V-42.4h4.875Zm-9.75,0H332.8V-42.4h4.875Z" fill="#6cc247"/>
    <path id="Caminho_733" data-name="Caminho 733" d="M327.484-22.9h-4.875V-42.4h4.875Zm-9.75,0h-4.875V-42.4h4.875Zm-9.75,0h-4.875V-42.4h4.875Zm-9.75,0h-4.875V-42.4h4.875Zm-9.75,0h-4.875V-42.4h4.875Zm-9.75,0h-4.875V-42.4h4.875Zm-9.75,0h-4.875V-42.4h4.875Z" fill="#6cc247"/>
    <path id="Caminho_734" data-name="Caminho 734" d="M258-22.9h-4.875V-42.4H258Zm-9.75,0h-4.875V-42.4h4.875Zm-9.75,0h-4.875V-42.4H238.5Zm-9.75,0h-4.875V-42.4h4.875Zm-9.75,0h-4.875V-42.4H219Zm-9.75,0h-4.875V-42.4h4.875Zm-9.75,0h-4.875V-42.4H199.5Z" fill="#6cc247"/>
    <g id="Grupo_573" data-name="Grupo 573" transform="translate(335.988 -78.861)">
      <path id="Caminho_735" data-name="Caminho 735" d="M0,0H-133.228L-162.52,26.456l349.76.278,7.7-10.907,17-23.978L0-8.68Z" fill="#6cc247"/>
    </g>
  </g>
</svg>
