<svg xmlns="http://www.w3.org/2000/svg" xmlns:xlink="http://www.w3.org/1999/xlink" width="14" height="36" viewBox="0 0 14 36">
  <defs>
    <clipPath id="clip-path">
      <rect id="Retângulo_106" data-name="Retângulo 106" width="14" height="36" transform="translate(1003 4343)" fill="#fff" stroke="#707070" stroke-width="1"/>
    </clipPath>
  </defs>
  <g id="pv_sec5tit1" transform="translate(-1003 -4343)" clip-path="url(#clip-path)">
    <g id="Grupo_400" data-name="Grupo 400" transform="translate(-1 63)">
      <g id="Grupo_391" data-name="Grupo 391" transform="translate(826.548 4315.708)">
        <path id="Caminho_470" data-name="Caminho 470" d="M0,0H183.931L180.1-11.917,0-13.288Z" fill="#d8482d"/>
      </g>
      <g id="Grupo_392" data-name="Grupo 392" transform="translate(1003.835 4280.356)">
        <path id="Caminho_471" data-name="Caminho 471" d="M0,0V28.706L6.644,35.35V6.642L0,0Z" fill="#d8482d"/>
      </g>
      <g id="Grupo_393" data-name="Grupo 393" transform="translate(1003.835 4280.356)">
        <path id="Caminho_472" data-name="Caminho 472" d="M0,0V16.164l6.644,6.644V6.642L0,0Z" fill="#ffb52f"/>
      </g>
      <g id="Grupo_394" data-name="Grupo 394" transform="translate(997.668 4296.979)">
        <path id="Caminho_473" data-name="Caminho 473" d="M0,0V9.16H19.982L17.2-.167Z" fill="#d8482d"/>
      </g>
      <g id="Grupo_395" data-name="Grupo 395" transform="translate(1013.407 4289.929)">
        <path id="Caminho_474" data-name="Caminho 474" d="M0,0V9.567l4.243,6.644V6.642L0,0Z" fill="#ffb52f"/>
      </g>
      <g id="Grupo_396" data-name="Grupo 396" transform="translate(821.583 4280.356)">
        <path id="Caminho_475" data-name="Caminho 475" d="M0,0V19.094l6.644,6.645V6.642L0,0Z" fill="#ffb52f"/>
      </g>
      <g id="Grupo_397" data-name="Grupo 397" transform="translate(810.337 4280.356)">
        <path id="Caminho_476" data-name="Caminho 476" d="M0,0V9.567l9.568,6.645V6.642Z" fill="#d8482d"/>
      </g>
      <g id="Grupo_398" data-name="Grupo 398" transform="translate(819.904 4309.062)">
        <path id="Caminho_477" data-name="Caminho 477" d="M0,0,6.644,6.645l.235.006-.121-21L0-19.229Z" fill="#d8482d"/>
      </g>
      <path id="Caminho_478" data-name="Caminho 478" d="M0,0V9.566H-9.569V0h-1.687V0h-9.568V9.572h9.568V28.706H172.675V19.139h9.571V9.572h-9.568V0H163.11V0Z" transform="translate(831.161 4280.356)" fill="#ff5f1e"/>
    </g>
  </g>
</svg>
